<mxfile host="app.diagrams.net" modified="2022-11-21T20:54:04.081Z" agent="5.0 (Windows NT 10.0; Win64; x64) AppleWebKit/537.36 (KHTML, like Gecko) Chrome/107.0.0.0 Safari/537.36" etag="LCsz4q3SH61DGq5yMpje" version="20.5.3" type="github">
  <diagram id="C5RBs43oDa-KdzZeNtuy" name="Page-1">
    <mxGraphModel dx="635" dy="748" grid="1" gridSize="10" guides="1" tooltips="1" connect="1" arrows="1" fold="1" page="1" pageScale="1" pageWidth="827" pageHeight="1169" math="0" shadow="0">
      <root>
        <mxCell id="WIyWlLk6GJQsqaUBKTNV-0" />
        <mxCell id="WIyWlLk6GJQsqaUBKTNV-1" parent="WIyWlLk6GJQsqaUBKTNV-0" />
        <mxCell id="ofrL5NVtGUKptjEaabPM-7" value="" style="edgeStyle=orthogonalEdgeStyle;rounded=0;orthogonalLoop=1;jettySize=auto;html=1;" edge="1" parent="WIyWlLk6GJQsqaUBKTNV-1" source="ofrL5NVtGUKptjEaabPM-5" target="ofrL5NVtGUKptjEaabPM-6">
          <mxGeometry relative="1" as="geometry" />
        </mxCell>
        <mxCell id="ofrL5NVtGUKptjEaabPM-5" value="start" style="ellipse;whiteSpace=wrap;html=1;" vertex="1" parent="WIyWlLk6GJQsqaUBKTNV-1">
          <mxGeometry x="180" y="30" width="120" height="80" as="geometry" />
        </mxCell>
        <mxCell id="ofrL5NVtGUKptjEaabPM-9" value="" style="edgeStyle=orthogonalEdgeStyle;rounded=0;orthogonalLoop=1;jettySize=auto;html=1;" edge="1" parent="WIyWlLk6GJQsqaUBKTNV-1" source="ofrL5NVtGUKptjEaabPM-6">
          <mxGeometry relative="1" as="geometry">
            <mxPoint x="240" y="340" as="targetPoint" />
          </mxGeometry>
        </mxCell>
        <mxCell id="ofrL5NVtGUKptjEaabPM-11" value="" style="edgeStyle=orthogonalEdgeStyle;rounded=0;orthogonalLoop=1;jettySize=auto;html=1;" edge="1" parent="WIyWlLk6GJQsqaUBKTNV-1" source="ofrL5NVtGUKptjEaabPM-6" target="ofrL5NVtGUKptjEaabPM-10">
          <mxGeometry relative="1" as="geometry" />
        </mxCell>
        <mxCell id="ofrL5NVtGUKptjEaabPM-6" value="What is your&amp;nbsp;&lt;br&gt;number :" style="shape=parallelogram;perimeter=parallelogramPerimeter;whiteSpace=wrap;html=1;fixedSize=1;" vertex="1" parent="WIyWlLk6GJQsqaUBKTNV-1">
          <mxGeometry x="180" y="200" width="120" height="60" as="geometry" />
        </mxCell>
        <mxCell id="ofrL5NVtGUKptjEaabPM-13" value="" style="edgeStyle=orthogonalEdgeStyle;rounded=0;orthogonalLoop=1;jettySize=auto;html=1;" edge="1" parent="WIyWlLk6GJQsqaUBKTNV-1" source="ofrL5NVtGUKptjEaabPM-10" target="ofrL5NVtGUKptjEaabPM-12">
          <mxGeometry relative="1" as="geometry" />
        </mxCell>
        <mxCell id="ofrL5NVtGUKptjEaabPM-19" value="" style="edgeStyle=orthogonalEdgeStyle;rounded=0;orthogonalLoop=1;jettySize=auto;html=1;" edge="1" parent="WIyWlLk6GJQsqaUBKTNV-1" source="ofrL5NVtGUKptjEaabPM-10" target="ofrL5NVtGUKptjEaabPM-18">
          <mxGeometry relative="1" as="geometry" />
        </mxCell>
        <mxCell id="ofrL5NVtGUKptjEaabPM-10" value="sum=0&lt;br&gt;i=1&lt;br&gt;i&amp;lt;=n" style="rhombus;whiteSpace=wrap;html=1;" vertex="1" parent="WIyWlLk6GJQsqaUBKTNV-1">
          <mxGeometry x="185" y="330" width="110" height="110" as="geometry" />
        </mxCell>
        <mxCell id="ofrL5NVtGUKptjEaabPM-12" value="sum=sum+(i*i)&lt;br&gt;i=i+i" style="whiteSpace=wrap;html=1;" vertex="1" parent="WIyWlLk6GJQsqaUBKTNV-1">
          <mxGeometry x="180" y="510" width="120" height="60" as="geometry" />
        </mxCell>
        <mxCell id="ofrL5NVtGUKptjEaabPM-17" value="" style="curved=1;endArrow=classic;html=1;rounded=0;exitX=0;exitY=0.5;exitDx=0;exitDy=0;entryX=0;entryY=0.5;entryDx=0;entryDy=0;" edge="1" parent="WIyWlLk6GJQsqaUBKTNV-1" source="ofrL5NVtGUKptjEaabPM-12" target="ofrL5NVtGUKptjEaabPM-10">
          <mxGeometry width="50" height="50" relative="1" as="geometry">
            <mxPoint x="80" y="510" as="sourcePoint" />
            <mxPoint x="180" y="380" as="targetPoint" />
            <Array as="points">
              <mxPoint x="120" y="530" />
              <mxPoint x="110" y="460" />
              <mxPoint x="110" y="420" />
              <mxPoint x="120" y="380" />
              <mxPoint x="160" y="385" />
            </Array>
          </mxGeometry>
        </mxCell>
        <mxCell id="ofrL5NVtGUKptjEaabPM-21" value="" style="edgeStyle=orthogonalEdgeStyle;rounded=0;orthogonalLoop=1;jettySize=auto;html=1;" edge="1" parent="WIyWlLk6GJQsqaUBKTNV-1" source="ofrL5NVtGUKptjEaabPM-18" target="ofrL5NVtGUKptjEaabPM-20">
          <mxGeometry relative="1" as="geometry" />
        </mxCell>
        <mxCell id="ofrL5NVtGUKptjEaabPM-18" value="print&amp;nbsp; sum&amp;nbsp;" style="whiteSpace=wrap;html=1;" vertex="1" parent="WIyWlLk6GJQsqaUBKTNV-1">
          <mxGeometry x="370" y="355" width="120" height="60" as="geometry" />
        </mxCell>
        <mxCell id="ofrL5NVtGUKptjEaabPM-20" value="end" style="ellipse;whiteSpace=wrap;html=1;" vertex="1" parent="WIyWlLk6GJQsqaUBKTNV-1">
          <mxGeometry x="570" y="355" width="120" height="60" as="geometry" />
        </mxCell>
      </root>
    </mxGraphModel>
  </diagram>
</mxfile>
